<svg width="24" height="24" viewBox="0 0 24 24" fill="none" xmlns="http://www.w3.org/2000/svg">
<path d="M18 2H8C6.89543 2 6 2.89543 6 4V8C6 9.10457 6.89543 10 8 10H18C19.1046 10 20 9.10457 20 8V4C20 2.89543 19.1046 2 18 2Z" stroke="#919191" stroke-width="2" stroke-linecap="round" stroke-linejoin="round"/>
<path d="M21 14H5C3.89543 14 3 14.8954 3 16V20C3 21.1046 3.89543 22 5 22H21C22.1046 22 23 21.1046 23 20V16C23 14.8954 22.1046 14 21 14Z" stroke="#919191" stroke-width="2" stroke-linecap="round" stroke-linejoin="round"/>
<path d="M7 18H9" stroke="#919191" stroke-width="2" stroke-linecap="round" stroke-linejoin="round"/>
<path d="M13 18H19" stroke="#919191" stroke-width="2" stroke-linecap="round" stroke-linejoin="round"/>
</svg>
