<svg width="24" height="24" viewBox="0 0 24 24" fill="none" xmlns="http://www.w3.org/2000/svg">
<path d="M16 6V18C16 18.5933 16.1759 19.1734 16.5056 19.6667C16.8352 20.1601 17.3038 20.5446 17.852 20.7716C18.4001 20.9987 19.0033 21.0581 19.5853 20.9424C20.1672 20.8266 20.7018 20.5409 21.1213 20.1213C21.5409 19.7018 21.8266 19.1672 21.9424 18.5853C22.0581 18.0033 21.9987 17.4001 21.7716 16.852C21.5446 16.3038 21.1601 15.8352 20.6667 15.5056C20.1734 15.1759 19.5933 15 19 15H7C6.40666 15 5.82664 15.1759 5.33329 15.5056C4.83994 15.8352 4.45543 16.3038 4.22836 16.852C4.0013 17.4001 3.94189 18.0033 4.05765 18.5853C4.1734 19.1672 4.45912 19.7018 4.87868 20.1213C5.29824 20.5409 5.83279 20.8266 6.41473 20.9424C6.99667 21.0581 7.59987 20.9987 8.14805 20.7716C8.69623 20.5446 9.16477 20.1601 9.49441 19.6667C9.82405 19.1734 10 18.5933 10 18V6C10 5.40666 9.82405 4.82664 9.49441 4.33329C9.16477 3.83994 8.69623 3.45543 8.14805 3.22836C7.59987 3.0013 6.99667 2.94189 6.41473 3.05765C5.83279 3.1734 5.29824 3.45912 4.87868 3.87868C4.45912 4.29824 4.1734 4.83279 4.05765 5.41473C3.94189 5.99667 4.0013 6.59987 4.22836 7.14805C4.45543 7.69623 4.83994 8.16477 5.33329 8.49441C5.82664 8.82405 6.40666 9 7 9H19C19.5933 9 20.1734 8.82405 20.6667 8.49441C21.1601 8.16477 21.5446 7.69623 21.7716 7.14805C21.9987 6.59987 22.0581 5.99667 21.9424 5.41473C21.8266 4.83279 21.5409 4.29824 21.1213 3.87868C20.7018 3.45912 20.1672 3.1734 19.5853 3.05765C19.0033 2.94189 18.4001 3.0013 17.852 3.22836C17.3038 3.45543 16.8352 3.83994 16.5056 4.33329C16.1759 4.82664 16 5.40666 16 6Z" stroke="#919191" stroke-width="2" stroke-linecap="round" stroke-linejoin="round"/>
</svg>
