<svg width="24" height="22" viewBox="0 0 24 22" fill="none" xmlns="http://www.w3.org/2000/svg">
<g clip-path="url(#clip0_47_61)">
<path d="M11.8451 10.9249C10.5559 8.86373 10.8306 6.36948 12.3244 4.61112C12.751 4.10661 12.1832 3.3854 11.5194 3.57749C10.7447 3.80559 9.99127 4.16095 9.29224 4.65666C6.68807 6.5064 5.76988 9.85171 7.10813 12.618C8.89062 16.2945 13.6549 17.6584 17.3326 15.6984C17.7892 15.455 18.1981 15.1755 18.5755 14.8589C19.0939 14.421 18.711 13.6089 18.0145 13.6953C15.5347 14.0238 13.0883 12.9258 11.8451 10.9249V10.9249Z" fill="white"/>
</g>
<defs>
<clipPath id="clip0_47_61">
<rect width="17.0098" height="16.3435" fill="white" transform="matrix(0.882497 -0.470317 0.530281 0.847822 0 8)"/>
</clipPath>
</defs>
</svg>
