<svg width="16" height="16" viewBox="0 0 16 16" fill="none" xmlns="http://www.w3.org/2000/svg">
<g clip-path="url(#clip0_47_65)">
<path d="M8.00004 10.6666C9.4728 10.6666 10.6667 9.47274 10.6667 7.99998C10.6667 6.52722 9.4728 5.33331 8.00004 5.33331C6.52728 5.33331 5.33337 6.52722 5.33337 7.99998C5.33337 9.47274 6.52728 10.6666 8.00004 10.6666Z" stroke="#939393" stroke-width="2" stroke-linecap="round" stroke-linejoin="round"/>
<path d="M8 1.33331L8 2.66665" stroke="#939393" stroke-width="2" stroke-linecap="round" stroke-linejoin="round"/>
<path d="M8 13.3333L8 14.6666" stroke="#939393" stroke-width="2" stroke-linecap="round" stroke-linejoin="round"/>
<path d="M3.28662 3.28668L4.22662 4.22668" stroke="#939393" stroke-width="2" stroke-linecap="round" stroke-linejoin="round"/>
<path d="M11.7733 11.7733L12.7133 12.7133" stroke="#939393" stroke-width="2" stroke-linecap="round" stroke-linejoin="round"/>
<path d="M1.33337 8L2.66671 8" stroke="#939393" stroke-width="2" stroke-linecap="round" stroke-linejoin="round"/>
<path d="M13.3334 8L14.6667 8" stroke="#939393" stroke-width="2" stroke-linecap="round" stroke-linejoin="round"/>
<path d="M4.22662 11.7733L3.28662 12.7133" stroke="#939393" stroke-width="2" stroke-linecap="round" stroke-linejoin="round"/>
<path d="M12.7133 3.28668L11.7733 4.22668" stroke="#939393" stroke-width="2" stroke-linecap="round" stroke-linejoin="round"/>
</g>
<defs>
<clipPath id="clip0_47_65">
<rect width="16" height="16" fill="white"/>
</clipPath>
</defs>
</svg>
