<svg width="130" height="23" viewBox="0 0 130 23" fill="none" xmlns="http://www.w3.org/2000/svg">
<path d="M103.86 8.74104C102.397 8.74104 101.497 7.38717 100.164 6.88581C98.8404 6.38768 97.3242 6.19651 96.0618 5.56859C94.8063 4.94412 91.3953 5.44681 90.5521 6.44054C89.2136 8.01791 85.5508 10.0295 85.5508 12.2289C85.5508 13.9327 85.7646 16.7603 87.4495 17.4977C88.6017 18.0021 89.5674 19.2502 90.7046 19.8724C92.0742 20.6218 93.6312 20.7629 95.1294 20.7629C97.8817 20.7629 100.657 20.475 103.182 19.0934C105.003 18.097 105.158 15.9807 105.081 14.0099C104.96 10.8926 102.61 9.04229 100.809 7.07134" stroke="#6E77B9" stroke-width="2.5" stroke-linecap="round"/>
<path d="M101.82 7.56367C100.406 7.56367 99.5356 6.24735 98.2469 5.75988C96.9665 5.27556 95.5006 5.08969 94.2801 4.47918C93.0663 3.87203 89.7681 4.36077 88.9528 5.32697C87.6587 6.86058 84.1172 8.81638 84.1172 10.9548C84.1172 12.6114 84.324 15.3605 85.9531 16.0776C87.067 16.5679 88.001 17.7815 89.1003 18.3865C90.4246 19.1149 91.9301 19.2523 93.3785 19.2523C96.0397 19.2523 98.7228 18.9723 101.165 17.6289C102.925 16.6603 103.075 14.6025 103 12.6865C102.883 9.65554 100.611 7.85659 98.8699 5.94027" stroke="#D8FF2E" stroke-width="2.5" stroke-linecap="round"/>
<path d="M111.481 4.53829C112.042 4.28545 112.774 5.95893 112.985 6.43862C113.296 7.14534 113.4 7.94299 113.714 8.66132C114.024 9.36907 114.305 10.1089 114.582 10.8331C115.481 13.1775 116.306 15.5984 117.203 17.9424C117.294 18.1803 117.71 19.9357 118.071 19.7749C118.645 19.5191 119.05 18.064 119.358 17.5184C119.998 16.3847 120.836 15.375 121.529 14.2775C123.201 11.6263 123.863 8.5902 125.157 5.75993C125.62 4.74471 126.102 3.68998 126.552 2.70581" stroke="#6E77B9" stroke-width="2.5" stroke-linecap="round"/>
<path d="M113.421 5.13965C113.954 4.90791 114.648 6.44186 114.848 6.88155C115.144 7.52935 115.242 8.26052 115.54 8.91896C115.834 9.56768 116.101 10.2458 116.365 10.9097C117.217 13.0586 118.001 15.2777 118.852 17.4262C118.938 17.6444 119.334 19.2532 119.676 19.1059C120.221 18.8714 120.605 17.5377 120.898 17.0375C121.505 15.9985 122.301 15.0729 122.958 14.0669C124.546 11.6367 125.175 8.85373 126.402 6.25944C126.843 5.32887 127.3 4.36208 127.727 3.45996" stroke="#D8FF2E" stroke-width="2.5" stroke-linecap="round"/>
<path d="M9.65806 21.9394C8.38865 21.9394 7.21865 21.7283 6.14806 21.3062C5.09277 20.8679 4.16747 20.2509 3.37218 19.4554C2.59218 18.6599 1.98041 17.7263 1.53688 16.6548C1.10865 15.5833 0.894531 14.4062 0.894531 13.1236C0.894531 11.841 1.10865 10.664 1.53688 9.59245C1.98041 8.52092 2.59983 7.58739 3.39512 6.79186C4.19041 5.99633 5.12335 5.38751 6.19394 4.96539C7.26453 4.52704 8.44218 4.30786 9.72688 4.30786C11.1492 4.30786 12.4263 4.55951 13.5581 5.0628C14.7051 5.5661 15.6686 6.29668 16.4486 7.25457L14.0628 9.59245C13.4816 8.94304 12.8469 8.4641 12.1586 8.15563C11.4704 7.83092 10.721 7.66857 9.91041 7.66857C9.13041 7.66857 8.41924 7.79845 7.77688 8.05821C7.13453 8.31798 6.5763 8.69139 6.10218 9.17845C5.64335 9.66551 5.28394 10.2419 5.02394 10.9075C4.77924 11.5732 4.65688 12.3119 4.65688 13.1236C4.65688 13.9192 4.77924 14.6497 5.02394 15.3154C5.28394 15.981 5.64335 16.5655 6.10218 17.0688C6.5763 17.5559 7.12688 17.9293 7.75394 18.189C8.3963 18.4488 9.09982 18.5787 9.86453 18.5787C10.5986 18.5787 11.3098 18.4569 11.9981 18.2134C12.7016 17.9536 13.3822 17.5234 14.0398 16.9227L16.1504 19.772C15.2786 20.4701 14.2616 21.0059 13.0992 21.3793C11.9522 21.7527 10.8051 21.9394 9.65806 21.9394ZM12.7551 19.2606V12.8557H16.1504V19.772L12.7551 19.2606ZM19.7862 21.6472L26.9439 4.6001H30.6144L37.795 21.6472H33.895L28.0221 6.59704H29.4903L23.5944 21.6472H19.7862ZM23.365 17.9942L24.3515 14.9988H32.6103L33.6197 17.9942H23.365ZM41.7553 21.6472V4.6001H44.8294L51.6659 16.6304H50.0371L56.7588 4.6001H59.81L59.8559 21.6472H56.3688L56.3459 10.2743H56.9883L51.62 19.845H49.9453L44.4624 10.2743H45.2424V21.6472H41.7553ZM69.3783 11.4676H77.1095V14.5361H69.3783V11.4676ZM69.6536 18.4813H78.3942V21.6472H65.96V4.6001H78.0959V7.76598H69.6536V18.4813Z" fill="black"/>
</svg>
