<svg width="130" height="23" viewBox="0 0 130 23" fill="none" xmlns="http://www.w3.org/2000/svg">
<path d="M103.86 8.74104C102.397 8.74104 101.497 7.38717 100.164 6.88581C98.84 6.38768 97.3238 6.19651 96.0614 5.56859C94.8059 4.94412 91.3949 5.44681 90.5517 6.44054C89.2132 8.01791 85.5504 10.0295 85.5504 12.2289C85.5504 13.9327 85.7643 16.7603 87.4492 17.4977C88.6013 18.0021 89.567 19.2502 90.7043 19.8724C92.0739 20.6218 93.6308 20.7629 95.129 20.7629C97.8813 20.7629 100.656 20.475 103.182 19.0934C105.002 18.097 105.157 15.9807 105.08 14.0099C104.959 10.8926 102.609 9.04229 100.808 7.07134" stroke="#6E77B9" stroke-width="2.5" stroke-linecap="round"/>
<path d="M101.821 7.56379C100.406 7.56379 99.5361 6.24747 98.2474 5.76001C96.967 5.27568 95.5011 5.08981 94.2806 4.4793C93.0668 3.87215 89.7686 4.36089 88.9533 5.32709C87.6592 6.86071 84.1177 8.8165 84.1177 10.9549C84.1177 12.6115 84.3245 15.3606 85.9536 16.0777C87.0675 16.568 88.0015 17.7816 89.1008 18.3866C90.4251 19.1151 91.9306 19.2524 93.379 19.2524C96.0402 19.2524 98.7233 18.9725 101.165 17.629C102.926 16.6604 103.075 14.6026 103.001 12.6866C102.884 9.65567 100.612 7.85671 98.8704 5.94039" stroke="#D8FF2E" stroke-width="2.5" stroke-linecap="round"/>
<path d="M111.482 4.53841C112.043 4.28557 112.775 5.95905 112.986 6.43874C113.297 7.14546 113.4 7.94311 113.714 8.66144C114.024 9.3692 114.305 10.109 114.583 10.8333C115.481 13.1776 116.306 15.5985 117.203 17.9425C117.294 18.1805 117.711 19.9358 118.071 19.775C118.645 19.5192 119.05 18.0641 119.358 17.5185C119.998 16.3848 120.836 15.3751 121.529 14.2776C123.201 11.6264 123.864 8.59032 125.157 5.76005C125.621 4.74483 126.103 3.6901 126.552 2.70593" stroke="#6E77B9" stroke-width="2.5" stroke-linecap="round"/>
<path d="M113.421 5.13965C113.953 4.90791 114.648 6.44186 114.848 6.88155C115.143 7.52935 115.241 8.26052 115.54 8.91896C115.834 9.56768 116.101 10.2458 116.364 10.9097C117.217 13.0586 118 15.2777 118.852 17.4262C118.938 17.6444 119.333 19.2532 119.676 19.1059C120.22 18.8714 120.605 17.5377 120.897 17.0375C121.505 15.9985 122.301 15.0729 122.958 14.0669C124.545 11.6367 125.174 8.85373 126.402 6.25944C126.842 5.32887 127.3 4.36208 127.726 3.45996" stroke="#D8FF2E" stroke-width="2.5" stroke-linecap="round"/>
<path d="M9.65818 21.9393C8.38877 21.9393 7.21877 21.7282 6.14818 21.3061C5.09289 20.8677 4.16759 20.2508 3.3723 19.4553C2.5923 18.6597 1.98054 17.7262 1.53701 16.6547C1.10877 15.5832 0.894653 14.4061 0.894653 13.1235C0.894653 11.8409 1.10877 10.6639 1.53701 9.59233C1.98054 8.5208 2.59995 7.58727 3.39524 6.79174C4.19054 5.99621 5.12348 5.38739 6.19407 4.96527C7.26465 4.52692 8.4423 4.30774 9.72701 4.30774C11.1494 4.30774 12.4264 4.55939 13.5582 5.06268C14.7052 5.56597 15.6688 6.29656 16.4488 7.25445L14.0629 9.59233C13.4817 8.94292 12.847 8.46397 12.1588 8.1555C11.4705 7.8308 10.7211 7.66845 9.91054 7.66845C9.13054 7.66845 8.41936 7.79833 7.77701 8.05809C7.13465 8.31786 6.57642 8.69127 6.1023 9.17833C5.64348 9.66539 5.28406 10.2417 5.02406 10.9074C4.77936 11.573 4.65701 12.3117 4.65701 13.1235C4.65701 13.919 4.77936 14.6496 5.02406 15.3153C5.28406 15.9809 5.64348 16.5654 6.1023 17.0687C6.57642 17.5557 7.12701 17.9292 7.75407 18.1889C8.39642 18.4487 9.09995 18.5786 9.86465 18.5786C10.5988 18.5786 11.3099 18.4568 11.9982 18.2133C12.7017 17.9535 13.3823 17.5233 14.0399 16.9226L16.1505 19.7719C15.2788 20.47 14.2617 21.0057 13.0994 21.3792C11.9523 21.7526 10.8052 21.9393 9.65818 21.9393ZM12.7552 19.2604V12.8556H16.1505V19.7719L12.7552 19.2604ZM19.7863 21.647L26.944 4.59997H30.6146L37.7952 21.647H33.8952L28.0222 6.59692H29.4904L23.5946 21.647H19.7863ZM23.3652 17.9941L24.3516 14.9987H32.6104L33.6199 17.9941H23.3652ZM41.7554 21.647V4.59997H44.8296L51.666 16.6303H50.0372L56.759 4.59997H59.8101L59.856 21.647H56.369L56.346 10.2742H56.9884L51.6201 19.8449H49.9454L44.4625 10.2742H45.2425V21.647H41.7554ZM69.3784 11.4675H77.1096V14.536H69.3784V11.4675ZM69.6537 18.4812H78.3943V21.647H65.9602V4.59997H78.096V7.76586H69.6537V18.4812Z" fill="white"/>
</svg>
