<svg width="39" height="22" viewBox="0 0 39 22" fill="none" xmlns="http://www.w3.org/2000/svg">
<path d="M4.41006 9C3.77125 9 3.18247 8.89227 2.64372 8.6768C2.11267 8.45304 1.64704 8.13812 1.24682 7.73204C0.854304 7.32597 0.546447 6.84945 0.32325 6.30249C0.10775 5.75553 0 5.1547 0 4.5C0 3.8453 0.10775 3.24448 0.32325 2.69751C0.546447 2.15055 0.858152 1.67403 1.25837 1.26796C1.65858 0.861878 2.12806 0.551105 2.66681 0.335635C3.20556 0.111878 3.79819 0 4.44469 0C5.16046 0 5.80311 0.128453 6.37265 0.385359C6.94988 0.642265 7.43475 1.01519 7.82727 1.50414L6.62663 2.69751C6.33416 2.36602 6.01476 2.12155 5.66842 1.96409C5.32208 1.79834 4.94496 1.71547 4.53705 1.71547C4.14453 1.71547 3.78664 1.78177 3.46339 1.91436C3.14014 2.04696 2.85922 2.23757 2.62063 2.48619C2.38974 2.73481 2.20888 3.02901 2.07804 3.36879C1.95489 3.70856 1.89332 4.08564 1.89332 4.5C1.89332 4.90608 1.95489 5.27901 2.07804 5.61878C2.20888 5.95856 2.38974 6.25691 2.62063 6.51381C2.85922 6.76243 3.1363 6.95304 3.45185 7.08564C3.7751 7.21823 4.12914 7.28453 4.51396 7.28453C4.88339 7.28453 5.24127 7.22238 5.58761 7.09807C5.94165 6.96547 6.28414 6.74586 6.61508 6.43923L7.67719 7.89365C7.23849 8.25 6.72668 8.52348 6.14175 8.71409C5.56452 8.9047 4.98729 9 4.41006 9ZM5.96858 7.6326V4.36326H7.67719V7.89365L5.96858 7.6326ZM9.50682 8.85083L13.1088 0.149171H14.9559L18.5694 8.85083H16.6068L13.6514 1.16851H14.3902L11.4232 8.85083H9.50682ZM11.3078 6.98619L11.8042 5.45718H15.9603L16.4682 6.98619H11.3078ZM20.5623 8.85083V0.149171H22.1093L25.5496 6.29006H24.7299L28.1125 0.149171H29.6479L29.671 8.85083H27.9162L27.9047 3.04558H28.2279L25.5265 7.93094H24.6837L21.9246 3.04558H22.3171V8.85083H20.5623ZM34.463 3.6547H38.3535V5.22099H34.463V3.6547ZM34.6015 7.23481H39V8.85083H32.7428V0.149171H38.8499V1.76519H34.6015V7.23481Z" fill="white"/>
<path d="M19.3677 15.3371C18.6192 15.3371 18.1587 14.812 17.4768 14.6175C16.7994 14.4243 16.0237 14.3502 15.3778 14.1066C14.7354 13.8644 12.9903 14.0594 12.5588 14.4448C11.874 15.0566 10 15.8369 10 16.6899C10 17.3508 10.1094 18.4475 10.9715 18.7335C11.561 18.9292 12.055 19.4133 12.6369 19.6546C13.3376 19.9453 14.1342 20 14.9007 20C16.3089 20 17.7287 19.8883 19.0208 19.3524C19.9523 18.966 20.0315 18.1451 19.9923 17.3807C19.9302 16.1716 18.7279 15.454 17.8065 14.6895" stroke="#6E77B9" stroke-width="2.5" stroke-linecap="round"/>
<path d="M17.4942 15.1143C16.8954 15.1143 16.527 14.6767 15.9815 14.5146C15.4395 14.3536 14.8189 14.2918 14.3022 14.0888C13.7884 13.887 12.3922 14.0495 12.047 14.3707C11.4992 14.8805 10 15.5307 10 16.2416C10 16.7923 10.0876 17.7062 10.7772 17.9446C11.2488 18.1076 11.6441 18.5111 12.1095 18.7122C12.6701 18.9543 13.3074 19 13.9206 19C15.0471 19 16.183 18.9069 17.2167 18.4603C17.9619 18.1383 18.0252 17.4542 17.9938 16.8173C17.9442 15.8097 16.9824 15.2116 16.2452 14.5746" stroke="#D8FF2E" stroke-width="2.5" stroke-linecap="round"/>
<path d="M23 13.6437C23.2234 13.5549 23.5147 14.1428 23.5987 14.3113C23.7225 14.5596 23.7637 14.8398 23.8889 15.0922C24.0121 15.3408 24.124 15.6007 24.2345 15.8551C24.5922 16.6787 24.9208 17.5291 25.2777 18.3526C25.314 18.4362 25.4799 19.0528 25.6234 18.9964C25.8518 18.9065 26.0131 18.3953 26.1358 18.2036C26.3907 17.8054 26.7243 17.4507 27 17.0651C27.6657 16.1337 27.9296 15.0672 28.4444 14.0729C28.6291 13.7163 28.821 13.3457 29 13" stroke="#6E77B9" stroke-width="2.5" stroke-linecap="round"/>
<path d="M22 13.6437C22.2234 13.5549 22.5147 14.1428 22.5987 14.3113C22.7225 14.5596 22.7637 14.8398 22.8888 15.0922C23.0122 15.3408 23.1241 15.6007 23.2346 15.8551C23.5922 16.6787 23.9208 17.5292 24.2779 18.3526C24.314 18.4362 24.48 19.0528 24.6235 18.9964C24.8519 18.9065 25.0132 18.3953 25.1359 18.2036C25.3907 17.8054 25.7244 17.4507 26.0001 17.0651C26.6659 16.1338 26.9297 15.0672 27.4446 14.0729C27.6292 13.7163 27.8211 13.3457 28 13" stroke="#D8FF2E" stroke-width="2.5" stroke-linecap="round"/>
</svg>
