<svg width="20" height="20" viewBox="0 0 20 20" fill="none" xmlns="http://www.w3.org/2000/svg">
<path d="M7.24141 17.8126H3.75001C3.33561 17.8126 2.93818 17.648 2.64515 17.355C2.35213 17.0619 2.18751 16.6645 2.18751 16.2501V12.7587C2.18691 12.5534 2.22707 12.3501 2.30565 12.1605C2.38424 11.9708 2.4997 11.7987 2.64532 11.654L7.24141 17.8126ZM7.24141 17.8126C7.44668 17.8132 7.65001 17.773 7.83963 17.6944M7.24141 17.8126L7.83963 17.6944M7.83963 17.6944C8.02926 17.6158 8.2014 17.5004 8.3461 17.3548L7.83963 17.6944ZM12.3121 2.05278L12.3121 2.05278C12.4528 1.91197 12.6199 1.80028 12.8038 1.72407C12.9878 1.64787 13.1849 1.60864 13.384 1.60864C13.5831 1.60864 13.7802 1.64787 13.9641 1.72407C14.1481 1.80028 14.3152 1.91197 14.4559 2.05278L14.4891 2.01964L14.4559 2.05278L17.9465 5.54418C18.2307 5.8284 18.3903 6.21384 18.3903 6.61573C18.3903 7.01762 18.2307 7.40306 17.9465 7.68727L8.31295 17.3216L8.31285 17.3217C8.17253 17.4629 8.00558 17.5749 7.82169 17.6511C7.63779 17.7273 7.4406 17.7663 7.24154 17.7657H7.24141H3.75001C3.34804 17.7657 2.96253 17.606 2.6783 17.3218C2.39406 17.0376 2.23438 16.6521 2.23438 16.2501L2.23438 12.7587L2.23438 12.7586C2.2338 12.5595 2.27275 12.3623 2.34896 12.1784C2.42517 11.9945 2.53713 11.8276 2.67836 11.6873L2.67847 11.6872L12.3121 2.05278ZM7.10938 15.9845H7.1288L7.14253 15.9707L13.705 9.40825L13.7382 9.3751L13.705 9.34196L10.6582 6.29508L10.625 6.26194L10.5919 6.29508L4.02936 12.8576L4.01563 12.8713V12.8907V15.9376V15.9845H4.06251H7.10938ZM14.9669 8.08013L15 8.11327L15.0332 8.08013L16.466 6.64731L16.4991 6.61417L16.466 6.58102L13.4191 3.53415L13.3859 3.501L13.3528 3.53415L11.92 4.96696L11.8868 5.00011L11.92 5.03325L14.9669 8.08013Z" fill="white" stroke="white" stroke-width="0.09375"/>
</svg>
