<?xml version="1.0" encoding="utf-8"?>
<!-- Generator: Adobe Illustrator 24.0.1, SVG Export Plug-In . SVG Version: 6.00 Build 0)  -->
<svg version="1.1" xmlns="http://www.w3.org/2000/svg" xmlns:xlink="http://www.w3.org/1999/xlink" x="0px" y="0px"
	 viewBox="0 0 180 251.1" style="enable-background:new 0 0 180 251.1;" xml:space="preserve">
<style type="text/css">
	.st0{display:none;}
	.st1{display:inline;fill:#F7F8FC;}
	.st2{display:inline;}
	.st3{fill:#F7F8FC;}
	.st4{fill:#FFFFFF;stroke:#0561FC;stroke-width:10.0091;}
	.st5{fill:#9AC7F7;}
	.st6{fill:#C5E1F9;stroke:#0561FC;stroke-width:10.0091;}
	.st7{fill:none;stroke:#0561FC;stroke-width:10.0091;}
	.st8{fill:#9AC7F7;stroke:#0561FC;stroke-width:10.0091;}
	.st9{fill:#FFFFFF;stroke:#0561FC;stroke-width:10.0091;stroke-linejoin:round;}
	.st10{fill:#C5E1F9;}
	.st11{fill:#FFFFFF;}
	.st12{fill:none;stroke:#0561FC;stroke-width:10.0091;stroke-linejoin:bevel;}
</style>
<g id="Layer_2">
</g>
<g id="Layer_3">
</g>
<g id="Layer_4">
	<g>
		<path class="st4" d="M5,251.1v-29.5c0-13,11.9-23.6,26.6-23.6h116.7c14.7,0,26.6,10.6,26.6,23.6v29.5"/>
		<path class="st5" d="M89.4,248h1.2c19.3,0,35-15.7,35-35.1v-9.9H54.4v9.9C54.4,232.3,70.1,248,89.4,248z"/>
		<path class="st4" d="M110.6,212.9c0,11.1-9,20-20,20h-1.2c-11,0-20-9-20-20v-51.4c0-11.1,9-20,20-20h1.2c11,0,20,9,20,20V212.9z"
			/>
		<path class="st4" d="M150.7,122.3c0,32.9-26.6,59.6-59.4,59.6l0,0c-32.8,0-59.4-26.7-59.4-59.6V74.6c0-32.9,26.6-59.6,59.4-59.6
			l0,0c32.8,0,59.4,26.7,59.4,59.6V122.3z"/>
		<path class="st6" d="M39.3,111.5V65.9c0-0.6,0.1-1.3,0.1-1.9c15.7,3.3,33.3,5.2,51.8,5.2c18.6,0,36.2-1.9,51.8-5.2
			c0,0.6,0.1,1.3,0.1,1.9v45.6H160c3.6-8.5,5.6-17.8,5.6-27.6v-8.8c0-38.7-31.3-70.1-70-70.1h-8.7c-38.6,0-70,31.4-70,70.1v8.8
			c0,9.8,2,19.1,5.6,27.6H39.3z"/>
		<path class="st4" d="M143.1,116.3c0-6.5,5.3-11.8,11.7-11.8h1c6.5,0,11.7,5.3,11.7,11.8v14.3c0,6.5-5.3,11.8-11.7,11.8h-1
			c-4.8,0-8.9-2.9-10.7-7"/>
		<path class="st4" d="M39.2,104.5c-6.3,0.7-16.6,5.9-16.6,12.5v15c0,6.5,10.3,11.8,16.6,12.5V104.5z"/>
		<path class="st4" d="M99.4,125.3c0,5.9-4.8,10.6-10.6,10.6c-5.9,0-10.6-4.8-10.6-10.6"/>
		<line class="st7" x1="60.6" y1="106.5" x2="71.5" y2="106.5"/>
		<line class="st7" x1="105.6" y1="106.5" x2="116.4" y2="106.5"/>
		<path class="st4" d="M64.6,150.7c5.9,8.3,15.6,13.8,26.6,13.8s20.7-5.4,26.6-13.8H64.6z"/>
	</g>
</g>
</svg>
